<svg width="88" height="190" viewBox="0 0 88 190" fill="none" xmlns="http://www.w3.org/2000/svg">
<path d="M15.5016 173.89C16.1816 173.35 16.4916 173.1 16.4316 173.14C18.3916 171.52 19.9316 170.19 21.0516 169.15C22.1916 168.11 23.1516 167.02 23.9316 165.88C24.7116 164.74 25.1016 163.63 25.1016 162.55C25.1016 161.73 24.9116 161.09 24.5316 160.63C24.1516 160.17 23.5816 159.94 22.8216 159.94C22.0616 159.94 21.4616 160.23 21.0216 160.81C20.6016 161.37 20.3916 162.17 20.3916 163.21H15.4416C15.4816 161.51 15.8416 160.09 16.5216 158.95C17.2216 157.81 18.1316 156.97 19.2516 156.43C20.3916 155.89 21.6516 155.62 23.0316 155.62C25.4116 155.62 27.2016 156.23 28.4016 157.45C29.6216 158.67 30.2316 160.26 30.2316 162.22C30.2316 164.36 29.5016 166.35 28.0416 168.19C26.5816 170.01 24.7216 171.79 22.4616 173.53H30.5616V177.7H15.5016V173.89ZM31.8903 174.1V169.96L41.3703 156.4H47.1003V169.66H49.5603V174.1H47.1003V178H41.9703V174.1H31.8903ZM42.3303 162.04L37.2903 169.66H42.3303V162.04ZM50.423 162.13C50.423 161.07 50.673 160.14 51.173 159.34C51.693 158.52 52.413 157.88 53.333 157.42C54.273 156.96 55.343 156.73 56.543 156.73C57.743 156.73 58.803 156.96 59.723 157.42C60.663 157.88 61.383 158.52 61.883 159.34C62.403 160.14 62.663 161.07 62.663 162.13C62.663 163.19 62.403 164.13 61.883 164.95C61.363 165.77 60.633 166.42 59.693 166.9C58.773 167.36 57.713 167.59 56.513 167.59C55.313 167.59 54.253 167.36 53.333 166.9C52.413 166.42 51.693 165.77 51.173 164.95C50.673 164.13 50.423 163.19 50.423 162.13ZM58.703 162.16C58.703 161.36 58.493 160.75 58.073 160.33C57.653 159.91 57.133 159.7 56.513 159.7C55.913 159.7 55.403 159.91 54.983 160.33C54.583 160.75 54.383 161.36 54.383 162.16C54.383 162.94 54.583 163.54 54.983 163.96C55.383 164.38 55.893 164.59 56.513 164.59C57.133 164.59 57.653 164.38 58.073 163.96C58.493 163.52 58.703 162.92 58.703 162.16Z" fill="white"/>
<path opacity="0.75" d="M9.46763 9.92C9.33563 9.368 9.09563 8.954 8.74764 8.678C8.39963 8.402 7.91363 8.264 7.28964 8.264C6.34163 8.264 5.63363 8.63 5.16563 9.362C4.69763 10.082 4.45163 11.282 4.42763 12.962C4.73963 12.434 5.19563 12.026 5.79563 11.738C6.39563 11.45 7.04363 11.306 7.73963 11.306C8.53163 11.306 9.22763 11.48 9.82764 11.828C10.4396 12.164 10.9136 12.656 11.2496 13.304C11.5976 13.952 11.7716 14.726 11.7716 15.626C11.7716 16.466 11.6036 17.216 11.2676 17.876C10.9436 18.536 10.4576 19.058 9.80963 19.442C9.16163 19.814 8.38163 20 7.46963 20C6.23363 20 5.26163 19.73 4.55363 19.19C3.85763 18.638 3.36563 17.864 3.07763 16.868C2.80163 15.872 2.66363 14.63 2.66363 13.142C2.66363 8.75 4.21163 6.554 7.30763 6.554C8.50763 6.554 9.44963 6.878 10.1336 7.526C10.8296 8.174 11.2376 8.972 11.3576 9.92H9.46763ZM7.28964 13.034C6.55763 13.034 5.93363 13.256 5.41763 13.7C4.91363 14.132 4.66163 14.762 4.66163 15.59C4.66163 16.418 4.89563 17.078 5.36363 17.57C5.84363 18.05 6.50963 18.29 7.36163 18.29C8.11763 18.29 8.71163 18.056 9.14363 17.588C9.58763 17.12 9.80963 16.496 9.80963 15.716C9.80963 14.9 9.59363 14.252 9.16164 13.772C8.74163 13.28 8.11763 13.034 7.28964 13.034ZM14.4285 20.126C14.0565 20.126 13.7445 20 13.4925 19.748C13.2405 19.496 13.1145 19.184 13.1145 18.812C13.1145 18.44 13.2405 18.128 13.4925 17.876C13.7445 17.624 14.0565 17.498 14.4285 17.498C14.7885 17.498 15.0945 17.624 15.3465 17.876C15.5985 18.128 15.7245 18.44 15.7245 18.812C15.7245 19.184 15.5985 19.496 15.3465 19.748C15.0945 20 14.7885 20.126 14.4285 20.126ZM14.4285 12.566C14.0565 12.566 13.7445 12.44 13.4925 12.188C13.2405 11.936 13.1145 11.624 13.1145 11.252C13.1145 10.88 13.2405 10.568 13.4925 10.316C13.7445 10.064 14.0565 9.938 14.4285 9.938C14.7885 9.938 15.0945 10.064 15.3465 10.316C15.5985 10.568 15.7245 10.88 15.7245 11.252C15.7245 11.624 15.5985 11.936 15.3465 12.188C15.0945 12.44 14.7885 12.566 14.4285 12.566ZM17.1126 13.268C17.1126 11.192 17.4606 9.572 18.1566 8.408C18.8646 7.232 20.0766 6.644 21.7926 6.644C23.5086 6.644 24.7146 7.232 25.4106 8.408C26.1186 9.572 26.4726 11.192 26.4726 13.268C26.4726 15.368 26.1186 17.012 25.4106 18.2C24.7146 19.376 23.5086 19.964 21.7926 19.964C20.0766 19.964 18.8646 19.376 18.1566 18.2C17.4606 17.012 17.1126 15.368 17.1126 13.268ZM24.4566 13.268C24.4566 12.296 24.3906 11.474 24.2586 10.802C24.1386 10.13 23.8866 9.584 23.5026 9.164C23.1186 8.732 22.5486 8.516 21.7926 8.516C21.0366 8.516 20.4666 8.732 20.0826 9.164C19.6986 9.584 19.4406 10.13 19.3086 10.802C19.1886 11.474 19.1286 12.296 19.1286 13.268C19.1286 14.276 19.1886 15.122 19.3086 15.806C19.4286 16.49 19.6806 17.042 20.0646 17.462C20.4606 17.882 21.0366 18.092 21.7926 18.092C22.5486 18.092 23.1186 17.882 23.5026 17.462C23.8986 17.042 24.1566 16.49 24.2766 15.806C24.3966 15.122 24.4566 14.276 24.4566 13.268ZM28.0138 13.268C28.0138 11.192 28.3618 9.572 29.0578 8.408C29.7658 7.232 30.9778 6.644 32.6938 6.644C34.4098 6.644 35.6158 7.232 36.3118 8.408C37.0198 9.572 37.3738 11.192 37.3738 13.268C37.3738 15.368 37.0198 17.012 36.3118 18.2C35.6158 19.376 34.4098 19.964 32.6938 19.964C30.9778 19.964 29.7658 19.376 29.0578 18.2C28.3618 17.012 28.0138 15.368 28.0138 13.268ZM35.3578 13.268C35.3578 12.296 35.2918 11.474 35.1598 10.802C35.0398 10.13 34.7878 9.584 34.4038 9.164C34.0198 8.732 33.4498 8.516 32.6938 8.516C31.9378 8.516 31.3678 8.732 30.9838 9.164C30.5998 9.584 30.3418 10.13 30.2098 10.802C30.0898 11.474 30.0298 12.296 30.0298 13.268C30.0298 14.276 30.0898 15.122 30.2098 15.806C30.3298 16.49 30.5818 17.042 30.9658 17.462C31.3618 17.882 31.9378 18.092 32.6938 18.092C33.4498 18.092 34.0198 17.882 34.4038 17.462C34.7998 17.042 35.0578 16.49 35.1778 15.806C35.2978 15.122 35.3578 14.276 35.3578 13.268ZM50.7729 17.444H45.5349L44.6349 20H42.4929L46.9749 7.472H49.3509L53.8329 20H51.6729L50.7729 17.444ZM50.1969 15.77L48.1629 9.956L46.1109 15.77H50.1969ZM68.3276 7.49V20H66.2756V11.432L62.4596 20H61.0376L57.2036 11.432V20H55.1516V7.49H57.3656L61.7576 17.3L66.1316 7.49H68.3276Z" fill="white"/>
<g filter="url(#filter0_f_45_499)">
<rect x="17.0893" y="58" width="53.2653" height="50.1582" rx="20.8623" fill="#FFEF9A"/>
</g>
<g filter="url(#filter1_i_45_499)">
<path d="M66.8036 87.0738C66.8036 99.8215 56.4696 110.155 43.722 110.155C30.9743 110.155 20.6403 99.8215 20.6403 87.0738C20.6403 74.3262 30.9743 63.9922 43.722 63.9922C56.4696 63.9922 66.8036 74.3262 66.8036 87.0738Z" fill="url(#paint0_linear_45_499)"/>
</g>
<g filter="url(#filter3_i_45_499)">
<path d="M56.8887 98.977C57.0491 98.0661 57.1328 97.1291 57.1328 96.1727C57.1328 87.2256 49.8122 79.9727 40.7817 79.9727C34.0684 79.9727 28.3 83.9811 25.7818 89.7142C23.7418 87.9691 21.0946 86.9155 18.2017 86.9155C11.7514 86.9155 6.52244 92.1538 6.52244 98.6155C6.52244 98.9753 6.53865 99.3314 6.57039 99.6829C3.46791 101.189 1.33163 104.348 1.33163 108.001C1.33163 113.114 5.51484 117.258 10.6751 117.258H54.7969C59.9571 117.258 64.1404 113.114 64.1404 108.001C64.1404 103.601 61.0418 99.9181 56.8887 98.977Z" fill="url(#paint1_linear_45_499)"/>
</g>
<defs>
<filter id="filter0_f_45_499" x="-3.8147e-06" y="40.9107" width="87.4439" height="84.3368" filterUnits="userSpaceOnUse" color-interpolation-filters="sRGB">
<feFlood flood-opacity="0" result="BackgroundImageFix"/>
<feBlend mode="normal" in="SourceGraphic" in2="BackgroundImageFix" result="shape"/>
<feGaussianBlur stdDeviation="8.54465" result="effect1_foregroundBlur_45_499"/>
</filter>
<filter id="filter1_i_45_499" x="20.6403" y="63.9922" width="46.1633" height="47.2728" filterUnits="userSpaceOnUse" color-interpolation-filters="sRGB">
<feFlood flood-opacity="0" result="BackgroundImageFix"/>
<feBlend mode="normal" in="SourceGraphic" in2="BackgroundImageFix" result="shape"/>
<feColorMatrix in="SourceAlpha" type="matrix" values="0 0 0 0 0 0 0 0 0 0 0 0 0 0 0 0 0 0 127 0" result="hardAlpha"/>
<feOffset dy="1.10969"/>
<feGaussianBlur stdDeviation="1.99745"/>
<feComposite in2="hardAlpha" operator="arithmetic" k2="-1" k3="1"/>
<feColorMatrix type="matrix" values="0 0 0 0 1 0 0 0 0 1 0 0 0 0 1 0 0 0 0.81 0"/>
<feBlend mode="normal" in2="shape" result="effect1_innerShadow_45_499"/>
</filter>
<filter id="filter3_i_45_499" x="1.33163" y="79.9727" width="62.8087" height="39.505" filterUnits="userSpaceOnUse" color-interpolation-filters="sRGB">
<feFlood flood-opacity="0" result="BackgroundImageFix"/>
<feBlend mode="normal" in="SourceGraphic" in2="BackgroundImageFix" result="shape"/>
<feColorMatrix in="SourceAlpha" type="matrix" values="0 0 0 0 0 0 0 0 0 0 0 0 0 0 0 0 0 0 127 0" result="hardAlpha"/>
<feOffset dy="2.44133"/>
<feGaussianBlur stdDeviation="1.10969"/>
<feComposite in2="hardAlpha" operator="arithmetic" k2="-1" k3="1"/>
<feColorMatrix type="matrix" values="0 0 0 0 1 0 0 0 0 1 0 0 0 0 1 0 0 0 1 0"/>
<feBlend mode="normal" in2="shape" result="effect1_innerShadow_45_499"/>
</filter>
<linearGradient id="paint0_linear_45_499" x1="40.2159" y1="99.6373" x2="59.2071" y2="66.3296" gradientUnits="userSpaceOnUse">
<stop stop-color="#FF9900"/>
<stop offset="1" stop-color="#FFEE94"/>
</linearGradient>
<linearGradient id="paint1_linear_45_499" x1="5.32654" y1="113.929" x2="68.6901" y2="66.5453" gradientUnits="userSpaceOnUse">
<stop stop-color="white"/>
<stop offset="1" stop-color="white" stop-opacity="0.58"/>
</linearGradient>
</defs>
</svg>
